<mxfile host="app.diagrams.net" modified="2022-07-21T07:50:53.761Z" agent="5.0 (Windows)" etag="NzMeskNEaW_vQZTzaQ4c" version="20.1.3" type="github">
  <diagram id="wky_A706Md2P9mNeTp39" name="Pàgina-1">
    <mxGraphModel dx="981" dy="1340" grid="0" gridSize="10" guides="1" tooltips="1" connect="1" arrows="1" fold="1" page="1" pageScale="1" pageWidth="1169" pageHeight="827" math="0" shadow="0">
      <root>
        <mxCell id="0" />
        <mxCell id="1" parent="0" />
        <mxCell id="9AbGmwq4OvZop5vTEiyq-4" value="Trabajador" style="swimlane;childLayout=stackLayout;horizontal=1;startSize=30;horizontalStack=0;rounded=1;fontSize=14;fontStyle=0;strokeWidth=2;resizeParent=0;resizeLast=1;shadow=0;dashed=0;align=center;html=1;" parent="1" vertex="1">
          <mxGeometry x="358" y="-675" width="127" height="140" as="geometry" />
        </mxCell>
        <mxCell id="9AbGmwq4OvZop5vTEiyq-5" value="&lt;div&gt;- &lt;u&gt;codigoTrabajador&lt;/u&gt;&lt;/div&gt;&lt;div&gt;- dni&lt;/div&gt;&lt;div&gt;- nombre&lt;/div&gt;&lt;div&gt;- apellidos&lt;/div&gt;&lt;div&gt;- telefono&lt;/div&gt;&lt;div&gt;- dirección&lt;/div&gt;&lt;div&gt;- numSS&lt;/div&gt;&lt;div&gt;&lt;br&gt;&lt;/div&gt;" style="align=left;strokeColor=none;fillColor=none;spacingLeft=4;fontSize=12;verticalAlign=top;resizable=0;rotatable=0;part=1;html=1;" parent="9AbGmwq4OvZop5vTEiyq-4" vertex="1">
          <mxGeometry y="30" width="127" height="110" as="geometry" />
        </mxCell>
        <mxCell id="9AbGmwq4OvZop5vTEiyq-8" value="Departamento" style="swimlane;childLayout=stackLayout;horizontal=1;startSize=30;horizontalStack=0;rounded=1;fontSize=14;fontStyle=0;strokeWidth=2;resizeParent=0;resizeLast=1;shadow=0;dashed=0;align=center;html=1;" parent="1" vertex="1">
          <mxGeometry x="798" y="-665" width="127" height="70" as="geometry" />
        </mxCell>
        <mxCell id="9AbGmwq4OvZop5vTEiyq-9" value="&lt;div&gt;- &lt;u&gt;codigoDepartamento&lt;/u&gt;&lt;/div&gt;&lt;div&gt;- nombre&lt;/div&gt;&lt;div&gt;&lt;br&gt;&lt;/div&gt;" style="align=left;strokeColor=none;fillColor=none;spacingLeft=4;fontSize=12;verticalAlign=top;resizable=0;rotatable=0;part=1;html=1;" parent="9AbGmwq4OvZop5vTEiyq-8" vertex="1">
          <mxGeometry y="30" width="127" height="40" as="geometry" />
        </mxCell>
        <mxCell id="9AbGmwq4OvZop5vTEiyq-10" value="coordina" style="shape=rhombus;perimeter=rhombusPerimeter;whiteSpace=wrap;html=1;align=center;" parent="1" vertex="1">
          <mxGeometry x="608" y="-555" width="120" height="60" as="geometry" />
        </mxCell>
        <mxCell id="9AbGmwq4OvZop5vTEiyq-11" value="trabaja" style="shape=rhombus;perimeter=rhombusPerimeter;whiteSpace=wrap;html=1;align=center;" parent="1" vertex="1">
          <mxGeometry x="608" y="-705" width="120" height="60" as="geometry" />
        </mxCell>
        <mxCell id="9AbGmwq4OvZop5vTEiyq-12" value="dirige" style="shape=rhombus;perimeter=rhombusPerimeter;whiteSpace=wrap;html=1;align=center;" parent="1" vertex="1">
          <mxGeometry x="208" y="-555" width="120" height="60" as="geometry" />
        </mxCell>
        <mxCell id="9AbGmwq4OvZop5vTEiyq-13" value="" style="endArrow=none;html=1;rounded=0;" parent="1" source="9AbGmwq4OvZop5vTEiyq-5" target="9AbGmwq4OvZop5vTEiyq-10" edge="1">
          <mxGeometry relative="1" as="geometry">
            <mxPoint x="498" y="-535" as="sourcePoint" />
            <mxPoint x="658" y="-535" as="targetPoint" />
          </mxGeometry>
        </mxCell>
        <mxCell id="9AbGmwq4OvZop5vTEiyq-14" value="" style="endArrow=none;html=1;rounded=0;" parent="1" source="9AbGmwq4OvZop5vTEiyq-9" target="9AbGmwq4OvZop5vTEiyq-10" edge="1">
          <mxGeometry relative="1" as="geometry">
            <mxPoint x="495" y="-563.2555780933062" as="sourcePoint" />
            <mxPoint x="638.7171314741036" y="-525.3585657370518" as="targetPoint" />
          </mxGeometry>
        </mxCell>
        <mxCell id="9AbGmwq4OvZop5vTEiyq-15" value="" style="endArrow=none;html=1;rounded=0;" parent="1" source="9AbGmwq4OvZop5vTEiyq-9" target="9AbGmwq4OvZop5vTEiyq-11" edge="1">
          <mxGeometry relative="1" as="geometry">
            <mxPoint x="828.5" y="-585" as="sourcePoint" />
            <mxPoint x="709.0843373493976" y="-529.4578313253012" as="targetPoint" />
          </mxGeometry>
        </mxCell>
        <mxCell id="9AbGmwq4OvZop5vTEiyq-16" value="" style="endArrow=none;html=1;rounded=0;" parent="1" source="9AbGmwq4OvZop5vTEiyq-11" target="9AbGmwq4OvZop5vTEiyq-5" edge="1">
          <mxGeometry relative="1" as="geometry">
            <mxPoint x="808" y="-624.6899224806202" as="sourcePoint" />
            <mxPoint x="715.0334928229665" y="-653.5167464114832" as="targetPoint" />
          </mxGeometry>
        </mxCell>
        <mxCell id="9AbGmwq4OvZop5vTEiyq-17" value="" style="endArrow=none;html=1;curved=1;" parent="1" source="9AbGmwq4OvZop5vTEiyq-4" target="9AbGmwq4OvZop5vTEiyq-12" edge="1">
          <mxGeometry relative="1" as="geometry">
            <mxPoint x="458" y="-705" as="sourcePoint" />
            <mxPoint x="495" y="-601.8965517241379" as="targetPoint" />
            <Array as="points">
              <mxPoint x="258" y="-625" />
            </Array>
          </mxGeometry>
        </mxCell>
        <mxCell id="9AbGmwq4OvZop5vTEiyq-18" value="" style="endArrow=none;html=1;curved=1;" parent="1" source="9AbGmwq4OvZop5vTEiyq-5" target="9AbGmwq4OvZop5vTEiyq-12" edge="1">
          <mxGeometry relative="1" as="geometry">
            <mxPoint x="448" y="-676.7375840978593" as="sourcePoint" />
            <mxPoint x="369.42857142857133" y="-753.2557142857142" as="targetPoint" />
            <Array as="points">
              <mxPoint x="378" y="-405" />
            </Array>
          </mxGeometry>
        </mxCell>
        <mxCell id="h6mPxnfmECKrlMnAZoUT-1" value="Contrato" style="swimlane;childLayout=stackLayout;horizontal=1;startSize=30;horizontalStack=0;rounded=1;fontSize=14;fontStyle=0;strokeWidth=2;resizeParent=0;resizeLast=1;shadow=0;dashed=0;align=center;html=1;" parent="1" vertex="1">
          <mxGeometry x="365" y="-385" width="113" height="79" as="geometry" />
        </mxCell>
        <mxCell id="h6mPxnfmECKrlMnAZoUT-2" value="&lt;div&gt;- fecha_inicio&lt;/div&gt;&lt;div&gt;- fecha_final&lt;br&gt;&lt;/div&gt;" style="align=left;strokeColor=none;fillColor=none;spacingLeft=4;fontSize=12;verticalAlign=top;resizable=0;rotatable=0;part=1;html=1;" parent="h6mPxnfmECKrlMnAZoUT-1" vertex="1">
          <mxGeometry y="30" width="113" height="49" as="geometry" />
        </mxCell>
        <mxCell id="h6mPxnfmECKrlMnAZoUT-6" value="Nomina" style="swimlane;childLayout=stackLayout;horizontal=1;startSize=30;horizontalStack=0;rounded=1;fontSize=14;fontStyle=0;strokeWidth=2;resizeParent=0;resizeLast=1;shadow=0;dashed=0;align=center;html=1;" parent="1" vertex="1">
          <mxGeometry x="581" y="-383" width="119" height="71" as="geometry" />
        </mxCell>
        <mxCell id="h6mPxnfmECKrlMnAZoUT-7" value="&lt;div&gt;- fecha&lt;/div&gt;&lt;div&gt;- salario&lt;br&gt;&lt;/div&gt;" style="align=left;strokeColor=none;fillColor=none;spacingLeft=4;fontSize=12;verticalAlign=top;resizable=0;rotatable=0;part=1;html=1;" parent="h6mPxnfmECKrlMnAZoUT-6" vertex="1">
          <mxGeometry y="30" width="119" height="41" as="geometry" />
        </mxCell>
        <mxCell id="h6mPxnfmECKrlMnAZoUT-9" value="" style="endArrow=none;html=1;rounded=0;fontSize=12;exitX=0.5;exitY=1;exitDx=0;exitDy=0;entryX=0.5;entryY=0;entryDx=0;entryDy=0;startArrow=none;" parent="1" source="h6mPxnfmECKrlMnAZoUT-12" target="h6mPxnfmECKrlMnAZoUT-1" edge="1">
          <mxGeometry relative="1" as="geometry">
            <mxPoint x="494" y="-513" as="sourcePoint" />
            <mxPoint x="654" y="-513" as="targetPoint" />
          </mxGeometry>
        </mxCell>
        <mxCell id="h6mPxnfmECKrlMnAZoUT-12" value="tiene" style="shape=rhombus;perimeter=rhombusPerimeter;whiteSpace=wrap;html=1;align=center;fontSize=12;" parent="1" vertex="1">
          <mxGeometry x="367" y="-485" width="107" height="60" as="geometry" />
        </mxCell>
        <mxCell id="h6mPxnfmECKrlMnAZoUT-13" value="" style="endArrow=none;html=1;rounded=0;fontSize=12;exitX=0.5;exitY=1;exitDx=0;exitDy=0;entryX=0.5;entryY=0;entryDx=0;entryDy=0;" parent="1" source="9AbGmwq4OvZop5vTEiyq-5" target="h6mPxnfmECKrlMnAZoUT-12" edge="1">
          <mxGeometry relative="1" as="geometry">
            <mxPoint x="421.5000000000002" y="-535" as="sourcePoint" />
            <mxPoint x="421.5" y="-385" as="targetPoint" />
          </mxGeometry>
        </mxCell>
        <mxCell id="h6mPxnfmECKrlMnAZoUT-14" value="" style="endArrow=none;html=1;rounded=0;fontSize=12;exitX=1;exitY=0.5;exitDx=0;exitDy=0;entryX=0;entryY=0.5;entryDx=0;entryDy=0;" parent="1" source="h6mPxnfmECKrlMnAZoUT-12" target="h6mPxnfmECKrlMnAZoUT-15" edge="1">
          <mxGeometry relative="1" as="geometry">
            <mxPoint x="494" y="-513" as="sourcePoint" />
            <mxPoint x="522" y="-455" as="targetPoint" />
          </mxGeometry>
        </mxCell>
        <mxCell id="h6mPxnfmECKrlMnAZoUT-15" value="categoria_prof" style="ellipse;whiteSpace=wrap;html=1;align=center;fontSize=12;" parent="1" vertex="1">
          <mxGeometry x="489.0000000000002" y="-475" width="100" height="40" as="geometry" />
        </mxCell>
        <mxCell id="MhpRxD7swT8oGkWKzY1_-1" value="&lt;b&gt;DIAGRAMA EJERCICIO 7&lt;/b&gt;" style="text;html=1;align=center;verticalAlign=middle;resizable=0;points=[];autosize=1;strokeColor=none;fillColor=none;" vertex="1" parent="1">
          <mxGeometry x="467" y="-791" width="152" height="26" as="geometry" />
        </mxCell>
        <mxCell id="MhpRxD7swT8oGkWKzY1_-2" value="1:N" style="text;html=1;align=center;verticalAlign=middle;resizable=0;points=[];autosize=1;strokeColor=none;fillColor=none;" vertex="1" parent="1">
          <mxGeometry x="487" y="-654" width="37" height="26" as="geometry" />
        </mxCell>
        <mxCell id="MhpRxD7swT8oGkWKzY1_-3" value="1:N" style="text;html=1;align=center;verticalAlign=middle;resizable=0;points=[];autosize=1;strokeColor=none;fillColor=none;" vertex="1" parent="1">
          <mxGeometry x="758" y="-674" width="37" height="26" as="geometry" />
        </mxCell>
        <mxCell id="MhpRxD7swT8oGkWKzY1_-4" value="1:1" style="text;html=1;align=center;verticalAlign=middle;resizable=0;points=[];autosize=1;strokeColor=none;fillColor=none;" vertex="1" parent="1">
          <mxGeometry x="483" y="-567" width="35" height="26" as="geometry" />
        </mxCell>
        <mxCell id="MhpRxD7swT8oGkWKzY1_-5" value="0:N" style="text;html=1;align=center;verticalAlign=middle;resizable=0;points=[];autosize=1;strokeColor=none;fillColor=none;" vertex="1" parent="1">
          <mxGeometry x="802" y="-593" width="37" height="26" as="geometry" />
        </mxCell>
        <mxCell id="MhpRxD7swT8oGkWKzY1_-6" value="" style="endArrow=none;dashed=1;html=1;rounded=0;exitX=1;exitY=0.25;exitDx=0;exitDy=0;entryX=0;entryY=0.25;entryDx=0;entryDy=0;" edge="1" parent="1" source="h6mPxnfmECKrlMnAZoUT-2" target="h6mPxnfmECKrlMnAZoUT-7">
          <mxGeometry width="50" height="50" relative="1" as="geometry">
            <mxPoint x="497" y="-443" as="sourcePoint" />
            <mxPoint x="547" y="-493" as="targetPoint" />
          </mxGeometry>
        </mxCell>
        <mxCell id="MhpRxD7swT8oGkWKzY1_-7" value="1:N" style="text;html=1;align=center;verticalAlign=middle;resizable=0;points=[];autosize=1;strokeColor=none;fillColor=none;" vertex="1" parent="1">
          <mxGeometry x="418" y="-411" width="37" height="26" as="geometry" />
        </mxCell>
        <mxCell id="MhpRxD7swT8oGkWKzY1_-8" value="1:1" style="text;html=1;align=center;verticalAlign=middle;resizable=0;points=[];autosize=1;strokeColor=none;fillColor=none;" vertex="1" parent="1">
          <mxGeometry x="419" y="-535" width="35" height="26" as="geometry" />
        </mxCell>
        <mxCell id="MhpRxD7swT8oGkWKzY1_-9" value="0:N" style="text;html=1;align=center;verticalAlign=middle;resizable=0;points=[];autosize=1;strokeColor=none;fillColor=none;" vertex="1" parent="1">
          <mxGeometry x="321" y="-618" width="37" height="26" as="geometry" />
        </mxCell>
        <mxCell id="MhpRxD7swT8oGkWKzY1_-10" value="1:1" style="text;html=1;align=center;verticalAlign=middle;resizable=0;points=[];autosize=1;strokeColor=none;fillColor=none;" vertex="1" parent="1">
          <mxGeometry x="367" y="-538" width="35" height="26" as="geometry" />
        </mxCell>
      </root>
    </mxGraphModel>
  </diagram>
</mxfile>
